<svg width="151" height="84" viewBox="0 0 151 84" fill="none" xmlns="http://www.w3.org/2000/svg">
<path d="M132.456 57.0734L136.724 61.3461V55.3065V33.5961C136.724 30.3265 139.357 27.6954 142.612 27.6954C145.867 27.6954 148.5 30.3265 148.5 33.5961V75.5993C148.5 78.8689 145.867 81.5 142.612 81.5H100.673C97.418 81.5 94.7854 78.8689 94.7854 75.5993C94.7854 72.3298 97.418 69.6987 100.673 69.6987H122.35H128.379L124.12 65.4323L85.6667 26.9205L83.8976 25.1487L82.1285 26.9205L54.5012 54.5902C52.2013 56.8936 48.4653 56.8936 46.1655 54.5902L4.22648 12.5869C1.92451 10.2814 1.92451 6.53305 4.22648 4.22754C6.52635 1.92415 10.2624 1.92415 12.5622 4.22754L12.5629 4.22819L48.578 40.2722L50.3471 42.0428L52.1156 40.2716L79.7167 12.6282C82.0165 10.3248 85.7525 10.3248 88.0524 12.6282L88.0529 12.6287L132.456 57.0734Z" stroke="#FF1418" stroke-width="5"/>
</svg>
